<svg width="40" height="40" viewBox="0 0 40 40" fill="none" xmlns="http://www.w3.org/2000/svg">
  <rect width="40" height="40" rx="8" fill="#4F46E5"/>
  <path d="M20 10C14.4772 10 10 14.4772 10 20C10 25.5228 14.4772 30 20 30C25.5228 30 30 25.5228 30 20C30 14.4772 25.5228 10 20 10ZM20 27C15.5817 27 12 23.4183 12 19C12 14.5817 15.5817 11 20 11C24.4183 11 28 14.5817 28 19C28 23.4183 24.4183 27 20 27Z" fill="white"/>
  <path d="M20 13C16.134 13 13 16.134 13 20C13 23.866 16.134 27 20 27C23.866 27 27 23.866 27 20C27 16.134 23.866 13 20 13ZM20 25C17.2386 25 15 22.7614 15 20C15 17.2386 17.2386 15 20 15C22.7614 15 25 17.2386 25 20C25 22.7614 22.7614 25 20 25Z" fill="white"/>
  <path d="M20 16C17.7909 16 16 17.7909 16 20C16 22.2091 17.7909 24 20 24C22.2091 24 24 22.2091 24 20C24 17.7909 22.2091 16 20 16Z" fill="white"/>
</svg>
